{
    "asset" : {
        "generator" : "Khronos glTF Blender I/O v1.2.75",
        "version" : "2.0"
    },
    "scene" : 0,
    "scenes" : [
        {
            "name" : "Scene",
            "nodes" : [
                0,
                1,
                2,
                3,
                4
            ]
        }
    ],
    "nodes" : [
        {
            "name" : "Lamp.001",
            "translation" : [
                -30.432764053344727,
                5.903861999511719,
                8.365347862243652
            ]
        },
        {
            "mesh" : 0,
            "name" : "rock",
            "rotation" : [
                0,
                0.7071067690849304,
                0,
                -0.7071067690849304
            ],
            "scale" : [
                0.6003017425537109,
                0.5136421322822571,
                0.452732652425766
            ]
        },
        {
            "name" : "Cube"
        },
        {
            "name" : "Lamp",
            "translation" : [
                17.990739822387695,
                5.903861999511719,
                0.727570652961731
            ]
        },
        {
            "name" : "Camera",
            "rotation" : [
                0.5311571359634399,
                0.3252415359020233,
                -0.231558158993721,
                0.7473090887069702
            ],
            "translation" : [
                18.794635772705078,
                8.631978034973145,
                17.555328369140625
            ]
        }
    ],
    "materials" : [
        {
            "doubleSided" : true,
            "name" : "Material.001",
            "pbrMetallicRoughness" : {}
        }
    ],
    "meshes" : [
        {
            "name" : "Cube.002",
            "primitives" : [
                {
                    "attributes" : {
                        "POSITION" : 0,
                        "NORMAL" : 1
                    },
                    "indices" : 2,
                    "material" : 0
                }
            ]
        }
    ],
    "accessors" : [
        {
            "bufferView" : 0,
            "componentType" : 5126,
            "count" : 2576,
            "max" : [
                9.073870658874512,
                18.45052719116211,
                10.615293502807617
            ],
            "min" : [
                -9.404335021972656,
                -23.40443229675293,
                -8.355290412902832
            ],
            "type" : "VEC3"
        },
        {
            "bufferView" : 1,
            "componentType" : 5126,
            "count" : 2576,
            "type" : "VEC3"
        },
        {
            "bufferView" : 2,
            "componentType" : 5123,
            "count" : 15408,
            "type" : "SCALAR"
        }
    ],
    "bufferViews" : [
        {
            "buffer" : 0,
            "byteLength" : 30912,
            "byteOffset" : 0
        },
        {
            "buffer" : 0,
            "byteLength" : 30912,
            "byteOffset" : 30912
        },
        {
            "buffer" : 0,
            "byteLength" : 30816,
            "byteOffset" : 61824
        }
    ],
    "buffers" : [
        {
            "byteLength" : 92640,
            "uri" : "data:application/octet-stream;base64,"
        }
    ]
}
